<svg width="26" height="26" viewBox="0 0 26 26" fill="none" xmlns="http://www.w3.org/2000/svg">
<path d="M12.308 2.74122C12.5647 2.12645 13.4356 2.12645 13.6923 2.74122L16.1488 8.62582C16.2514 8.87151 16.4765 9.04441 16.7403 9.08012L23.2044 9.95501C23.8546 10.043 24.0863 10.8645 23.578 11.2793L18.5827 15.3557C18.3612 15.5364 18.2617 15.8273 18.3262 16.1058L19.9235 23.0084C20.0786 23.6786 19.325 24.1866 18.7619 23.7914L13.431 20.0499C13.1724 19.8684 12.8279 19.8684 12.5693 20.0499L7.23833 23.7915C6.6753 24.1866 5.92171 23.6787 6.07678 23.0085L7.67401 16.1058C7.73845 15.8273 7.63898 15.5364 7.4175 15.3557L2.4223 11.2793C1.91397 10.8645 2.14572 10.043 2.79589 9.95501L9.26001 9.08012C9.52385 9.04441 9.74897 8.87151 9.85154 8.62582L12.308 2.74122Z" stroke="#BFCC94" stroke-width="2" stroke-miterlimit="3.3292" stroke-linecap="round" stroke-linejoin="round"/>
</svg>
